<mxfile host="app.diagrams.net" modified="2023-03-27T15:08:58.177Z" agent="Mozilla/5.0 (Windows NT 10.0; Win64; x64) AppleWebKit/537.36 (KHTML, like Gecko) Chrome/111.0.0.0 Safari/537.36" etag="zzHmSrxDxLGsyj2-wAFW" version="21.1.1" type="device">
  <diagram name="Page-1" id="7fBK9-1cdRgOpvXdVtkp">
    <mxGraphModel dx="2571" dy="966" grid="1" gridSize="10" guides="1" tooltips="1" connect="1" arrows="1" fold="1" page="1" pageScale="1" pageWidth="827" pageHeight="1169" math="0" shadow="0">
      <root>
        <mxCell id="0" />
        <mxCell id="1" parent="0" />
        <mxCell id="YmIMG2dyGglgubDdi4Zd-1" value="&lt;i&gt;base_quad_tree&lt;/i&gt;" style="swimlane;fontStyle=1;align=center;verticalAlign=top;childLayout=stackLayout;horizontal=1;startSize=26;horizontalStack=0;resizeParent=1;resizeParentMax=0;resizeLast=0;collapsible=1;marginBottom=0;whiteSpace=wrap;html=1;" vertex="1" parent="1">
          <mxGeometry x="480" y="70" width="320" height="294" as="geometry" />
        </mxCell>
        <mxCell id="YmIMG2dyGglgubDdi4Zd-2" value="# root_:&amp;nbsp;std::unique_ptr&amp;lt;BaseNode&amp;gt;&lt;br&gt;" style="text;strokeColor=none;fillColor=none;align=left;verticalAlign=top;spacingLeft=4;spacingRight=4;overflow=hidden;rotatable=0;points=[[0,0.5],[1,0.5]];portConstraint=eastwest;whiteSpace=wrap;html=1;" vertex="1" parent="YmIMG2dyGglgubDdi4Zd-1">
          <mxGeometry y="26" width="320" height="26" as="geometry" />
        </mxCell>
        <mxCell id="YmIMG2dyGglgubDdi4Zd-3" value="# figures_: std::vector&amp;lt;Figure&amp;gt;" style="text;strokeColor=none;fillColor=none;align=left;verticalAlign=top;spacingLeft=4;spacingRight=4;overflow=hidden;rotatable=0;points=[[0,0.5],[1,0.5]];portConstraint=eastwest;whiteSpace=wrap;html=1;" vertex="1" parent="YmIMG2dyGglgubDdi4Zd-1">
          <mxGeometry y="52" width="320" height="26" as="geometry" />
        </mxCell>
        <mxCell id="YmIMG2dyGglgubDdi4Zd-4" value="&lt;span style=&quot;color: rgb(0, 0, 0); font-family: Helvetica; font-size: 12px; font-style: normal; font-variant-ligatures: normal; font-variant-caps: normal; font-weight: 400; letter-spacing: normal; orphans: 2; text-align: left; text-indent: 0px; text-transform: none; widows: 2; word-spacing: 0px; -webkit-text-stroke-width: 0px; background-color: rgb(251, 251, 251); text-decoration-thickness: initial; text-decoration-style: initial; text-decoration-color: initial; float: none; display: inline !important;&quot;&gt;# MAX_AABB_FIGURES_COUNT:&amp;nbsp;&lt;/span&gt;const uint32_t" style="text;strokeColor=none;fillColor=none;align=left;verticalAlign=top;spacingLeft=4;spacingRight=4;overflow=hidden;rotatable=0;points=[[0,0.5],[1,0.5]];portConstraint=eastwest;whiteSpace=wrap;html=1;" vertex="1" parent="YmIMG2dyGglgubDdi4Zd-1">
          <mxGeometry y="78" width="320" height="26" as="geometry" />
        </mxCell>
        <mxCell id="YmIMG2dyGglgubDdi4Zd-5" value="" style="line;strokeWidth=1;fillColor=none;align=left;verticalAlign=middle;spacingTop=-1;spacingLeft=3;spacingRight=3;rotatable=0;labelPosition=right;points=[];portConstraint=eastwest;strokeColor=inherit;" vertex="1" parent="YmIMG2dyGglgubDdi4Zd-1">
          <mxGeometry y="104" width="320" height="8" as="geometry" />
        </mxCell>
        <mxCell id="YmIMG2dyGglgubDdi4Zd-6" value="+ base_quad_tree()" style="text;strokeColor=none;fillColor=none;align=left;verticalAlign=top;spacingLeft=4;spacingRight=4;overflow=hidden;rotatable=0;points=[[0,0.5],[1,0.5]];portConstraint=eastwest;whiteSpace=wrap;html=1;" vertex="1" parent="YmIMG2dyGglgubDdi4Zd-1">
          <mxGeometry y="112" width="320" height="26" as="geometry" />
        </mxCell>
        <mxCell id="YmIMG2dyGglgubDdi4Zd-7" value="+ base_quad_tree(const std::vector&amp;lt;Figure&amp;gt; &amp;amp;)" style="text;strokeColor=none;fillColor=none;align=left;verticalAlign=top;spacingLeft=4;spacingRight=4;overflow=hidden;rotatable=0;points=[[0,0.5],[1,0.5]];portConstraint=eastwest;whiteSpace=wrap;html=1;" vertex="1" parent="YmIMG2dyGglgubDdi4Zd-1">
          <mxGeometry y="138" width="320" height="26" as="geometry" />
        </mxCell>
        <mxCell id="YmIMG2dyGglgubDdi4Zd-8" value="# &lt;i&gt;query(const AABB &amp;amp;):&amp;nbsp;std::vector&amp;lt;uint32_t&amp;gt;&lt;/i&gt;" style="text;strokeColor=none;fillColor=none;align=left;verticalAlign=top;spacingLeft=4;spacingRight=4;overflow=hidden;rotatable=0;points=[[0,0.5],[1,0.5]];portConstraint=eastwest;whiteSpace=wrap;html=1;" vertex="1" parent="YmIMG2dyGglgubDdi4Zd-1">
          <mxGeometry y="164" width="320" height="26" as="geometry" />
        </mxCell>
        <mxCell id="YmIMG2dyGglgubDdi4Zd-9" value="+ update(const std::vector&amp;lt;Figure&amp;gt; &amp;amp;): void" style="text;strokeColor=none;fillColor=none;align=left;verticalAlign=top;spacingLeft=4;spacingRight=4;overflow=hidden;rotatable=0;points=[[0,0.5],[1,0.5]];portConstraint=eastwest;whiteSpace=wrap;html=1;" vertex="1" parent="YmIMG2dyGglgubDdi4Zd-1">
          <mxGeometry y="190" width="320" height="26" as="geometry" />
        </mxCell>
        <mxCell id="YmIMG2dyGglgubDdi4Zd-10" value="+ get_close_figures(const Figure &amp;amp;):&amp;nbsp;std::vector&amp;lt;uint32_t&amp;gt;" style="text;strokeColor=none;fillColor=none;align=left;verticalAlign=top;spacingLeft=4;spacingRight=4;overflow=hidden;rotatable=0;points=[[0,0.5],[1,0.5]];portConstraint=eastwest;whiteSpace=wrap;html=1;" vertex="1" parent="YmIMG2dyGglgubDdi4Zd-1">
          <mxGeometry y="216" width="320" height="26" as="geometry" />
        </mxCell>
        <mxCell id="YmIMG2dyGglgubDdi4Zd-11" value="+ is_collided(const Figure&amp;amp;): bool" style="text;strokeColor=none;fillColor=none;align=left;verticalAlign=top;spacingLeft=4;spacingRight=4;overflow=hidden;rotatable=0;points=[[0,0.5],[1,0.5]];portConstraint=eastwest;whiteSpace=wrap;html=1;" vertex="1" parent="YmIMG2dyGglgubDdi4Zd-1">
          <mxGeometry y="242" width="320" height="26" as="geometry" />
        </mxCell>
        <mxCell id="YmIMG2dyGglgubDdi4Zd-12" value="+ insert(const Figure&amp;amp;): bool" style="text;strokeColor=none;fillColor=none;align=left;verticalAlign=top;spacingLeft=4;spacingRight=4;overflow=hidden;rotatable=0;points=[[0,0.5],[1,0.5]];portConstraint=eastwest;whiteSpace=wrap;html=1;" vertex="1" parent="YmIMG2dyGglgubDdi4Zd-1">
          <mxGeometry y="268" width="320" height="26" as="geometry" />
        </mxCell>
        <mxCell id="YmIMG2dyGglgubDdi4Zd-13" value="heap_quad_tree" style="swimlane;fontStyle=1;align=center;verticalAlign=top;childLayout=stackLayout;horizontal=1;startSize=26;horizontalStack=0;resizeParent=1;resizeParentMax=0;resizeLast=0;collapsible=1;marginBottom=0;whiteSpace=wrap;html=1;" vertex="1" parent="1">
          <mxGeometry x="130" y="602" width="430" height="112" as="geometry" />
        </mxCell>
        <mxCell id="YmIMG2dyGglgubDdi4Zd-14" value="" style="line;strokeWidth=1;fillColor=none;align=left;verticalAlign=middle;spacingTop=-1;spacingLeft=3;spacingRight=3;rotatable=0;labelPosition=right;points=[];portConstraint=eastwest;strokeColor=inherit;" vertex="1" parent="YmIMG2dyGglgubDdi4Zd-13">
          <mxGeometry y="26" width="430" height="8" as="geometry" />
        </mxCell>
        <mxCell id="YmIMG2dyGglgubDdi4Zd-15" value="+&amp;nbsp;heap_quad_tree(const AABB &amp;amp;)" style="text;strokeColor=none;fillColor=none;align=left;verticalAlign=top;spacingLeft=4;spacingRight=4;overflow=hidden;rotatable=0;points=[[0,0.5],[1,0.5]];portConstraint=eastwest;whiteSpace=wrap;html=1;" vertex="1" parent="YmIMG2dyGglgubDdi4Zd-13">
          <mxGeometry y="34" width="430" height="26" as="geometry" />
        </mxCell>
        <mxCell id="YmIMG2dyGglgubDdi4Zd-16" value="+&amp;nbsp;heap_quad_tree(const std::vector&amp;lt;Figure&amp;gt; &amp;amp;,&amp;nbsp;&lt;span style=&quot;background-color: initial;&quot;&gt;const AABB &amp;amp;)&lt;/span&gt;" style="text;strokeColor=none;fillColor=none;align=left;verticalAlign=top;spacingLeft=4;spacingRight=4;overflow=hidden;rotatable=0;points=[[0,0.5],[1,0.5]];portConstraint=eastwest;whiteSpace=wrap;html=1;" vertex="1" parent="YmIMG2dyGglgubDdi4Zd-13">
          <mxGeometry y="60" width="430" height="26" as="geometry" />
        </mxCell>
        <mxCell id="YmIMG2dyGglgubDdi4Zd-17" value="+ update(const std::vector&amp;lt;FIgure&amp;gt; &amp;amp;): void" style="text;strokeColor=none;fillColor=none;align=left;verticalAlign=top;spacingLeft=4;spacingRight=4;overflow=hidden;rotatable=0;points=[[0,0.5],[1,0.5]];portConstraint=eastwest;whiteSpace=wrap;html=1;" vertex="1" parent="YmIMG2dyGglgubDdi4Zd-13">
          <mxGeometry y="86" width="430" height="26" as="geometry" />
        </mxCell>
        <mxCell id="YmIMG2dyGglgubDdi4Zd-18" value="stack_quad_tree" style="swimlane;fontStyle=1;align=center;verticalAlign=top;childLayout=stackLayout;horizontal=1;startSize=26;horizontalStack=0;resizeParent=1;resizeParentMax=0;resizeLast=0;collapsible=1;marginBottom=0;whiteSpace=wrap;html=1;" vertex="1" parent="1">
          <mxGeometry x="710" y="602" width="430" height="138" as="geometry" />
        </mxCell>
        <mxCell id="YmIMG2dyGglgubDdi4Zd-19" value="- nodes_: std::vector&amp;lt;Node&amp;gt;" style="text;strokeColor=none;fillColor=none;align=left;verticalAlign=top;spacingLeft=4;spacingRight=4;overflow=hidden;rotatable=0;points=[[0,0.5],[1,0.5]];portConstraint=eastwest;whiteSpace=wrap;html=1;" vertex="1" parent="YmIMG2dyGglgubDdi4Zd-18">
          <mxGeometry y="26" width="430" height="26" as="geometry" />
        </mxCell>
        <mxCell id="YmIMG2dyGglgubDdi4Zd-20" value="" style="line;strokeWidth=1;fillColor=none;align=left;verticalAlign=middle;spacingTop=-1;spacingLeft=3;spacingRight=3;rotatable=0;labelPosition=right;points=[];portConstraint=eastwest;strokeColor=inherit;" vertex="1" parent="YmIMG2dyGglgubDdi4Zd-18">
          <mxGeometry y="52" width="430" height="8" as="geometry" />
        </mxCell>
        <mxCell id="YmIMG2dyGglgubDdi4Zd-21" value="+&amp;nbsp;stack_quad_tree(const AABB &amp;amp;)" style="text;strokeColor=none;fillColor=none;align=left;verticalAlign=top;spacingLeft=4;spacingRight=4;overflow=hidden;rotatable=0;points=[[0,0.5],[1,0.5]];portConstraint=eastwest;whiteSpace=wrap;html=1;" vertex="1" parent="YmIMG2dyGglgubDdi4Zd-18">
          <mxGeometry y="60" width="430" height="26" as="geometry" />
        </mxCell>
        <mxCell id="YmIMG2dyGglgubDdi4Zd-22" value="+&amp;nbsp;stack_quad_tree(const std::vector&amp;lt;Figure&amp;gt; &amp;amp;,&amp;nbsp;&lt;span style=&quot;background-color: initial;&quot;&gt;const AABB &amp;amp;);&lt;/span&gt;" style="text;strokeColor=none;fillColor=none;align=left;verticalAlign=top;spacingLeft=4;spacingRight=4;overflow=hidden;rotatable=0;points=[[0,0.5],[1,0.5]];portConstraint=eastwest;whiteSpace=wrap;html=1;" vertex="1" parent="YmIMG2dyGglgubDdi4Zd-18">
          <mxGeometry y="86" width="430" height="26" as="geometry" />
        </mxCell>
        <mxCell id="YmIMG2dyGglgubDdi4Zd-23" value="+&amp;nbsp;update(const std::vector&amp;lt;Figure&amp;gt; &amp;amp;): void" style="text;strokeColor=none;fillColor=none;align=left;verticalAlign=top;spacingLeft=4;spacingRight=4;overflow=hidden;rotatable=0;points=[[0,0.5],[1,0.5]];portConstraint=eastwest;whiteSpace=wrap;html=1;" vertex="1" parent="YmIMG2dyGglgubDdi4Zd-18">
          <mxGeometry y="112" width="430" height="26" as="geometry" />
        </mxCell>
        <mxCell id="YmIMG2dyGglgubDdi4Zd-24" value="" style="endArrow=none;startArrow=circlePlus;endFill=0;startFill=0;html=1;rounded=0;entryX=0.487;entryY=0.48;entryDx=0;entryDy=0;entryPerimeter=0;exitX=0.001;exitY=0.399;exitDx=0;exitDy=0;exitPerimeter=0;" edge="1" parent="1" source="YmIMG2dyGglgubDdi4Zd-9" target="YmIMG2dyGglgubDdi4Zd-25">
          <mxGeometry width="160" relative="1" as="geometry">
            <mxPoint x="440" y="317" as="sourcePoint" />
            <mxPoint x="350" y="210" as="targetPoint" />
          </mxGeometry>
        </mxCell>
        <mxCell id="YmIMG2dyGglgubDdi4Zd-25" value="" style="line;strokeWidth=1;fillColor=none;align=left;verticalAlign=middle;spacingTop=-1;spacingLeft=3;spacingRight=3;rotatable=0;labelPosition=right;points=[];portConstraint=eastwest;strokeColor=inherit;direction=south;" vertex="1" parent="1">
          <mxGeometry x="350" y="110" width="8" height="330" as="geometry" />
        </mxCell>
        <mxCell id="YmIMG2dyGglgubDdi4Zd-26" value="" style="endArrow=block;dashed=1;endFill=0;endSize=12;html=1;rounded=0;entryX=0.5;entryY=1;entryDx=0;entryDy=0;entryPerimeter=0;" edge="1" parent="1" source="YmIMG2dyGglgubDdi4Zd-27" target="YmIMG2dyGglgubDdi4Zd-50">
          <mxGeometry width="160" relative="1" as="geometry">
            <mxPoint x="180" y="452" as="sourcePoint" />
            <mxPoint x="-10" y="580" as="targetPoint" />
          </mxGeometry>
        </mxCell>
        <mxCell id="YmIMG2dyGglgubDdi4Zd-27" value="" style="line;strokeWidth=1;fillColor=none;align=left;verticalAlign=middle;spacingTop=-1;spacingLeft=3;spacingRight=3;rotatable=0;labelPosition=right;points=[];portConstraint=eastwest;strokeColor=inherit;dashed=1;" vertex="1" parent="1">
          <mxGeometry x="-120" y="680" width="220" height="8" as="geometry" />
        </mxCell>
        <mxCell id="YmIMG2dyGglgubDdi4Zd-28" value="" style="endArrow=none;startArrow=circlePlus;endFill=0;startFill=0;html=1;rounded=0;entryX=0.5;entryY=0;entryDx=0;entryDy=0;verticalAlign=middle;exitX=0.5;exitY=1;exitDx=0;exitDy=0;exitPerimeter=0;" edge="1" parent="1" source="YmIMG2dyGglgubDdi4Zd-23" target="YmIMG2dyGglgubDdi4Zd-56">
          <mxGeometry width="160" relative="1" as="geometry">
            <mxPoint x="950" y="750" as="sourcePoint" />
            <mxPoint x="1157.8700000000008" y="791.326" as="targetPoint" />
          </mxGeometry>
        </mxCell>
        <mxCell id="YmIMG2dyGglgubDdi4Zd-29" value="" style="endArrow=none;startArrow=circlePlus;endFill=0;startFill=0;html=1;rounded=0;entryX=0.5;entryY=0;entryDx=0;entryDy=0;verticalAlign=middle;exitX=0.5;exitY=0.998;exitDx=0;exitDy=0;exitPerimeter=0;" edge="1" parent="1" source="YmIMG2dyGglgubDdi4Zd-17" target="YmIMG2dyGglgubDdi4Zd-66">
          <mxGeometry width="160" relative="1" as="geometry">
            <mxPoint x="344.7" y="760" as="sourcePoint" />
            <mxPoint x="344.7" y="820" as="targetPoint" />
          </mxGeometry>
        </mxCell>
        <mxCell id="YmIMG2dyGglgubDdi4Zd-30" value="" style="endArrow=block;dashed=1;endFill=0;endSize=12;html=1;rounded=0;entryX=0.471;entryY=1.009;entryDx=0;entryDy=0;entryPerimeter=0;" edge="1" parent="1" target="YmIMG2dyGglgubDdi4Zd-12">
          <mxGeometry width="160" relative="1" as="geometry">
            <mxPoint x="631" y="479" as="sourcePoint" />
            <mxPoint x="590" y="370" as="targetPoint" />
          </mxGeometry>
        </mxCell>
        <mxCell id="YmIMG2dyGglgubDdi4Zd-31" value="" style="line;strokeWidth=1;fillColor=none;align=left;verticalAlign=middle;spacingTop=-1;spacingLeft=3;spacingRight=3;rotatable=0;labelPosition=right;points=[];portConstraint=eastwest;strokeColor=inherit;dashed=1;" vertex="1" parent="1">
          <mxGeometry x="520" y="480" width="220" height="8" as="geometry" />
        </mxCell>
        <mxCell id="YmIMG2dyGglgubDdi4Zd-32" value="" style="group" vertex="1" connectable="0" parent="1">
          <mxGeometry x="-230" y="70" width="440" height="190" as="geometry" />
        </mxCell>
        <mxCell id="YmIMG2dyGglgubDdi4Zd-33" value="AABB" style="swimlane;fontStyle=1;align=center;verticalAlign=top;childLayout=stackLayout;horizontal=1;startSize=26;horizontalStack=0;resizeParent=1;resizeParentMax=0;resizeLast=0;collapsible=1;marginBottom=0;whiteSpace=wrap;html=1;" vertex="1" parent="YmIMG2dyGglgubDdi4Zd-32">
          <mxGeometry width="440" height="190" as="geometry" />
        </mxCell>
        <mxCell id="YmIMG2dyGglgubDdi4Zd-34" value="+ center_: Vector2d" style="text;strokeColor=none;fillColor=none;align=left;verticalAlign=top;spacingLeft=4;spacingRight=4;overflow=hidden;rotatable=0;points=[[0,0.5],[1,0.5]];portConstraint=eastwest;whiteSpace=wrap;html=1;" vertex="1" parent="YmIMG2dyGglgubDdi4Zd-33">
          <mxGeometry y="26" width="440" height="26" as="geometry" />
        </mxCell>
        <mxCell id="YmIMG2dyGglgubDdi4Zd-35" value="+&amp;nbsp;half_of_length_: double" style="text;strokeColor=none;fillColor=none;align=left;verticalAlign=top;spacingLeft=4;spacingRight=4;overflow=hidden;rotatable=0;points=[[0,0.5],[1,0.5]];portConstraint=eastwest;whiteSpace=wrap;html=1;" vertex="1" parent="YmIMG2dyGglgubDdi4Zd-33">
          <mxGeometry y="52" width="440" height="26" as="geometry" />
        </mxCell>
        <mxCell id="YmIMG2dyGglgubDdi4Zd-36" value="" style="line;strokeWidth=1;fillColor=none;align=left;verticalAlign=middle;spacingTop=-1;spacingLeft=3;spacingRight=3;rotatable=0;labelPosition=right;points=[];portConstraint=eastwest;strokeColor=inherit;" vertex="1" parent="YmIMG2dyGglgubDdi4Zd-33">
          <mxGeometry y="78" width="440" height="8" as="geometry" />
        </mxCell>
        <mxCell id="YmIMG2dyGglgubDdi4Zd-37" value="+ AABB()" style="text;strokeColor=none;fillColor=none;align=left;verticalAlign=top;spacingLeft=4;spacingRight=4;overflow=hidden;rotatable=0;points=[[0,0.5],[1,0.5]];portConstraint=eastwest;whiteSpace=wrap;html=1;" vertex="1" parent="YmIMG2dyGglgubDdi4Zd-33">
          <mxGeometry y="86" width="440" height="26" as="geometry" />
        </mxCell>
        <mxCell id="YmIMG2dyGglgubDdi4Zd-38" value="+ AABB(double, double, double)" style="text;strokeColor=none;fillColor=none;align=left;verticalAlign=top;spacingLeft=4;spacingRight=4;overflow=hidden;rotatable=0;points=[[0,0.5],[1,0.5]];portConstraint=eastwest;whiteSpace=wrap;html=1;" vertex="1" parent="YmIMG2dyGglgubDdi4Zd-33">
          <mxGeometry y="112" width="440" height="26" as="geometry" />
        </mxCell>
        <mxCell id="YmIMG2dyGglgubDdi4Zd-39" value="+&amp;nbsp;contains(const Figure &amp;amp;): bool" style="text;strokeColor=none;fillColor=none;align=left;verticalAlign=top;spacingLeft=4;spacingRight=4;overflow=hidden;rotatable=0;points=[[0,0.5],[1,0.5]];portConstraint=eastwest;whiteSpace=wrap;html=1;" vertex="1" parent="YmIMG2dyGglgubDdi4Zd-33">
          <mxGeometry y="138" width="440" height="26" as="geometry" />
        </mxCell>
        <mxCell id="YmIMG2dyGglgubDdi4Zd-40" value="+ intersects(const AABB &amp;amp;): bool" style="text;strokeColor=none;fillColor=none;align=left;verticalAlign=top;spacingLeft=4;spacingRight=4;overflow=hidden;rotatable=0;points=[[0,0.5],[1,0.5]];portConstraint=eastwest;whiteSpace=wrap;html=1;" vertex="1" parent="YmIMG2dyGglgubDdi4Zd-33">
          <mxGeometry y="164" width="440" height="26" as="geometry" />
        </mxCell>
        <mxCell id="YmIMG2dyGglgubDdi4Zd-41" value="" style="endArrow=none;html=1;rounded=0;entryX=0;entryY=0.444;entryDx=0;entryDy=0;entryPerimeter=0;" edge="1" parent="YmIMG2dyGglgubDdi4Zd-32" target="YmIMG2dyGglgubDdi4Zd-25">
          <mxGeometry width="50" height="50" relative="1" as="geometry">
            <mxPoint x="440" y="40" as="sourcePoint" />
            <mxPoint x="580" y="40" as="targetPoint" />
          </mxGeometry>
        </mxCell>
        <mxCell id="YmIMG2dyGglgubDdi4Zd-42" value="" style="group" vertex="1" connectable="0" parent="1">
          <mxGeometry x="-230" y="380" width="440" height="190" as="geometry" />
        </mxCell>
        <mxCell id="YmIMG2dyGglgubDdi4Zd-43" value="&lt;i&gt;BaseNode&lt;/i&gt;" style="swimlane;fontStyle=1;align=center;verticalAlign=top;childLayout=stackLayout;horizontal=1;startSize=26;horizontalStack=0;resizeParent=1;resizeParentMax=0;resizeLast=0;collapsible=1;marginBottom=0;whiteSpace=wrap;html=1;" vertex="1" parent="YmIMG2dyGglgubDdi4Zd-42">
          <mxGeometry width="440" height="190" as="geometry" />
        </mxCell>
        <mxCell id="YmIMG2dyGglgubDdi4Zd-44" value="+ boundary: AABB" style="text;strokeColor=none;fillColor=none;align=left;verticalAlign=top;spacingLeft=4;spacingRight=4;overflow=hidden;rotatable=0;points=[[0,0.5],[1,0.5]];portConstraint=eastwest;whiteSpace=wrap;html=1;" vertex="1" parent="YmIMG2dyGglgubDdi4Zd-43">
          <mxGeometry y="26" width="440" height="26" as="geometry" />
        </mxCell>
        <mxCell id="YmIMG2dyGglgubDdi4Zd-45" value="+ figures_id: std::vector&amp;lt;uint32_t&amp;gt;" style="text;strokeColor=none;fillColor=none;align=left;verticalAlign=top;spacingLeft=4;spacingRight=4;overflow=hidden;rotatable=0;points=[[0,0.5],[1,0.5]];portConstraint=eastwest;whiteSpace=wrap;html=1;" vertex="1" parent="YmIMG2dyGglgubDdi4Zd-43">
          <mxGeometry y="52" width="440" height="26" as="geometry" />
        </mxCell>
        <mxCell id="YmIMG2dyGglgubDdi4Zd-46" value="" style="line;strokeWidth=1;fillColor=none;align=left;verticalAlign=middle;spacingTop=-1;spacingLeft=3;spacingRight=3;rotatable=0;labelPosition=right;points=[];portConstraint=eastwest;strokeColor=inherit;" vertex="1" parent="YmIMG2dyGglgubDdi4Zd-43">
          <mxGeometry y="78" width="440" height="8" as="geometry" />
        </mxCell>
        <mxCell id="YmIMG2dyGglgubDdi4Zd-47" value="+&amp;nbsp;BaseNode()" style="text;strokeColor=none;fillColor=none;align=left;verticalAlign=top;spacingLeft=4;spacingRight=4;overflow=hidden;rotatable=0;points=[[0,0.5],[1,0.5]];portConstraint=eastwest;whiteSpace=wrap;html=1;" vertex="1" parent="YmIMG2dyGglgubDdi4Zd-43">
          <mxGeometry y="86" width="440" height="26" as="geometry" />
        </mxCell>
        <mxCell id="YmIMG2dyGglgubDdi4Zd-48" value="+ BaseNode(const AABB &amp;amp;)" style="text;strokeColor=none;fillColor=none;align=left;verticalAlign=top;spacingLeft=4;spacingRight=4;overflow=hidden;rotatable=0;points=[[0,0.5],[1,0.5]];portConstraint=eastwest;whiteSpace=wrap;html=1;" vertex="1" parent="YmIMG2dyGglgubDdi4Zd-43">
          <mxGeometry y="112" width="440" height="26" as="geometry" />
        </mxCell>
        <mxCell id="YmIMG2dyGglgubDdi4Zd-49" value="&lt;i&gt;+ insert(base_quad_tree *, uint32_t): bool&lt;/i&gt;" style="text;strokeColor=none;fillColor=none;align=left;verticalAlign=top;spacingLeft=4;spacingRight=4;overflow=hidden;rotatable=0;points=[[0,0.5],[1,0.5]];portConstraint=eastwest;whiteSpace=wrap;html=1;" vertex="1" parent="YmIMG2dyGglgubDdi4Zd-43">
          <mxGeometry y="138" width="440" height="26" as="geometry" />
        </mxCell>
        <mxCell id="YmIMG2dyGglgubDdi4Zd-50" value="+ &lt;i&gt;query(const base_quad_tree *,&amp;nbsp;&lt;span style=&quot;background-color: initial;&quot;&gt;const AABB &amp;amp;,&amp;nbsp;&lt;/span&gt;&lt;span style=&quot;background-color: initial;&quot;&gt;std::vector&amp;lt;uint32_t&amp;gt; &amp;amp;): void&amp;nbsp;&lt;/span&gt;&lt;/i&gt;&lt;span style=&quot;background-color: initial;&quot;&gt;&lt;br&gt;&lt;/span&gt;" style="text;strokeColor=none;fillColor=none;align=left;verticalAlign=top;spacingLeft=4;spacingRight=4;overflow=hidden;rotatable=0;points=[[0,0.5],[1,0.5]];portConstraint=eastwest;whiteSpace=wrap;html=1;" vertex="1" parent="YmIMG2dyGglgubDdi4Zd-43">
          <mxGeometry y="164" width="440" height="26" as="geometry" />
        </mxCell>
        <mxCell id="YmIMG2dyGglgubDdi4Zd-51" value="" style="endArrow=none;html=1;rounded=0;exitX=1;exitY=0.333;exitDx=0;exitDy=0;entryX=1.001;entryY=0.5;entryDx=0;entryDy=0;entryPerimeter=0;exitPerimeter=0;" edge="1" parent="1" source="YmIMG2dyGglgubDdi4Zd-45" target="YmIMG2dyGglgubDdi4Zd-25">
          <mxGeometry width="50" height="50" relative="1" as="geometry">
            <mxPoint x="300" y="350" as="sourcePoint" />
            <mxPoint x="360" y="463" as="targetPoint" />
          </mxGeometry>
        </mxCell>
        <mxCell id="YmIMG2dyGglgubDdi4Zd-52" value="" style="group" vertex="1" connectable="0" parent="1">
          <mxGeometry x="345" y="484" width="580" height="56" as="geometry" />
        </mxCell>
        <mxCell id="YmIMG2dyGglgubDdi4Zd-53" value="" style="endArrow=none;html=1;rounded=0;entryX=0.5;entryY=0;entryDx=0;entryDy=0;dashed=1;strokeColor=default;edgeStyle=elbowEdgeStyle;exitX=0.002;exitY=0.501;exitDx=0;exitDy=0;exitPerimeter=0;" edge="1" parent="YmIMG2dyGglgubDdi4Zd-52" source="YmIMG2dyGglgubDdi4Zd-31" target="YmIMG2dyGglgubDdi4Zd-13">
          <mxGeometry width="50" height="50" relative="1" as="geometry">
            <mxPoint x="35" y="-4" as="sourcePoint" />
            <mxPoint x="85" y="-53" as="targetPoint" />
            <Array as="points">
              <mxPoint y="56" />
            </Array>
          </mxGeometry>
        </mxCell>
        <mxCell id="YmIMG2dyGglgubDdi4Zd-54" value="" style="endArrow=none;html=1;rounded=0;entryX=0.5;entryY=0;entryDx=0;entryDy=0;dashed=1;edgeStyle=orthogonalEdgeStyle;exitX=0.978;exitY=0.501;exitDx=0;exitDy=0;exitPerimeter=0;" edge="1" parent="YmIMG2dyGglgubDdi4Zd-52" source="YmIMG2dyGglgubDdi4Zd-31" target="YmIMG2dyGglgubDdi4Zd-18">
          <mxGeometry width="50" height="50" relative="1" as="geometry">
            <mxPoint x="405" y="6" as="sourcePoint" />
            <mxPoint x="361" y="182" as="targetPoint" />
            <Array as="points">
              <mxPoint x="580" />
            </Array>
          </mxGeometry>
        </mxCell>
        <mxCell id="YmIMG2dyGglgubDdi4Zd-55" value="" style="group" vertex="1" connectable="0" parent="1">
          <mxGeometry x="-120" y="800" width="1260" height="320" as="geometry" />
        </mxCell>
        <mxCell id="YmIMG2dyGglgubDdi4Zd-56" value="Node" style="swimlane;fontStyle=1;align=center;verticalAlign=top;childLayout=stackLayout;horizontal=1;startSize=26;horizontalStack=0;resizeParent=1;resizeParentMax=0;resizeLast=0;collapsible=1;marginBottom=0;whiteSpace=wrap;html=1;" vertex="1" parent="YmIMG2dyGglgubDdi4Zd-55">
          <mxGeometry x="830" width="430" height="190" as="geometry" />
        </mxCell>
        <mxCell id="YmIMG2dyGglgubDdi4Zd-57" value="+ children: std::array&amp;lt;std::unique_ptr&amp;lt;Node&amp;gt;, 4&amp;gt;" style="text;strokeColor=none;fillColor=none;align=left;verticalAlign=top;spacingLeft=4;spacingRight=4;overflow=hidden;rotatable=0;points=[[0,0.5],[1,0.5]];portConstraint=eastwest;whiteSpace=wrap;html=1;" vertex="1" parent="YmIMG2dyGglgubDdi4Zd-56">
          <mxGeometry y="26" width="430" height="26" as="geometry" />
        </mxCell>
        <mxCell id="YmIMG2dyGglgubDdi4Zd-58" value="" style="line;strokeWidth=1;fillColor=none;align=left;verticalAlign=middle;spacingTop=-1;spacingLeft=3;spacingRight=3;rotatable=0;labelPosition=right;points=[];portConstraint=eastwest;strokeColor=inherit;" vertex="1" parent="YmIMG2dyGglgubDdi4Zd-56">
          <mxGeometry y="52" width="430" height="8" as="geometry" />
        </mxCell>
        <mxCell id="YmIMG2dyGglgubDdi4Zd-59" value="+ Node()" style="text;strokeColor=none;fillColor=none;align=left;verticalAlign=top;spacingLeft=4;spacingRight=4;overflow=hidden;rotatable=0;points=[[0,0.5],[1,0.5]];portConstraint=eastwest;whiteSpace=wrap;html=1;" vertex="1" parent="YmIMG2dyGglgubDdi4Zd-56">
          <mxGeometry y="60" width="430" height="26" as="geometry" />
        </mxCell>
        <mxCell id="YmIMG2dyGglgubDdi4Zd-60" value="+ Node(const AABB &amp;amp;)" style="text;strokeColor=none;fillColor=none;align=left;verticalAlign=top;spacingLeft=4;spacingRight=4;overflow=hidden;rotatable=0;points=[[0,0.5],[1,0.5]];portConstraint=eastwest;whiteSpace=wrap;html=1;" vertex="1" parent="YmIMG2dyGglgubDdi4Zd-56">
          <mxGeometry y="86" width="430" height="26" as="geometry" />
        </mxCell>
        <mxCell id="YmIMG2dyGglgubDdi4Zd-61" value="+ insert(base_quad_tree *, uint32_t): bool" style="text;strokeColor=none;fillColor=none;align=left;verticalAlign=top;spacingLeft=4;spacingRight=4;overflow=hidden;rotatable=0;points=[[0,0.5],[1,0.5]];portConstraint=eastwest;whiteSpace=wrap;html=1;" vertex="1" parent="YmIMG2dyGglgubDdi4Zd-56">
          <mxGeometry y="112" width="430" height="26" as="geometry" />
        </mxCell>
        <mxCell id="YmIMG2dyGglgubDdi4Zd-62" value="+ subdivide(stack_quad_tree *): void" style="text;strokeColor=none;fillColor=none;align=left;verticalAlign=top;spacingLeft=4;spacingRight=4;overflow=hidden;rotatable=0;points=[[0,0.5],[1,0.5]];portConstraint=eastwest;whiteSpace=wrap;html=1;" vertex="1" parent="YmIMG2dyGglgubDdi4Zd-56">
          <mxGeometry y="138" width="430" height="26" as="geometry" />
        </mxCell>
        <mxCell id="YmIMG2dyGglgubDdi4Zd-63" value="+&amp;nbsp;query(const base_quad_tree *,&amp;nbsp;&lt;span style=&quot;background-color: initial;&quot;&gt;const AABB &amp;amp;,&amp;nbsp;&lt;/span&gt;&lt;span style=&quot;background-color: initial;&quot;&gt;std::vector&amp;lt;uint32_t&amp;gt; &amp;amp;): void&lt;/span&gt;&lt;span style=&quot;background-color: initial;&quot;&gt;&lt;br&gt;&lt;/span&gt;" style="text;strokeColor=none;fillColor=none;align=left;verticalAlign=top;spacingLeft=4;spacingRight=4;overflow=hidden;rotatable=0;points=[[0,0.5],[1,0.5]];portConstraint=eastwest;whiteSpace=wrap;html=1;" vertex="1" parent="YmIMG2dyGglgubDdi4Zd-56">
          <mxGeometry y="164" width="430" height="26" as="geometry" />
        </mxCell>
        <mxCell id="YmIMG2dyGglgubDdi4Zd-64" value="" style="endArrow=none;html=1;rounded=0;exitX=0.001;exitY=0.526;exitDx=0;exitDy=0;exitPerimeter=0;dashed=1;edgeStyle=orthogonalEdgeStyle;elbow=vertical;entryX=0.484;entryY=1.009;entryDx=0;entryDy=0;entryPerimeter=0;" edge="1" parent="1" source="YmIMG2dyGglgubDdi4Zd-27" target="YmIMG2dyGglgubDdi4Zd-63">
          <mxGeometry width="50" height="50" relative="1" as="geometry">
            <mxPoint x="-120.00000000000003" y="688" as="sourcePoint" />
            <mxPoint x="960" y="1120" as="targetPoint" />
            <Array as="points">
              <mxPoint x="-120" y="1120" />
              <mxPoint x="918" y="1120" />
            </Array>
          </mxGeometry>
        </mxCell>
        <mxCell id="YmIMG2dyGglgubDdi4Zd-65" value="" style="group" vertex="1" connectable="0" parent="1">
          <mxGeometry x="100" y="684" width="460" height="280" as="geometry" />
        </mxCell>
        <mxCell id="YmIMG2dyGglgubDdi4Zd-66" value="Node" style="swimlane;fontStyle=1;align=center;verticalAlign=top;childLayout=stackLayout;horizontal=1;startSize=26;horizontalStack=0;resizeParent=1;resizeParentMax=0;resizeLast=0;collapsible=1;marginBottom=0;whiteSpace=wrap;html=1;" vertex="1" parent="YmIMG2dyGglgubDdi4Zd-65">
          <mxGeometry x="30" y="116" width="430" height="164" as="geometry" />
        </mxCell>
        <mxCell id="YmIMG2dyGglgubDdi4Zd-67" value="+ children:&amp;nbsp;std::array&amp;lt;uint32_t, 4&amp;gt;" style="text;strokeColor=none;fillColor=none;align=left;verticalAlign=top;spacingLeft=4;spacingRight=4;overflow=hidden;rotatable=0;points=[[0,0.5],[1,0.5]];portConstraint=eastwest;whiteSpace=wrap;html=1;" vertex="1" parent="YmIMG2dyGglgubDdi4Zd-66">
          <mxGeometry y="26" width="430" height="26" as="geometry" />
        </mxCell>
        <mxCell id="YmIMG2dyGglgubDdi4Zd-68" value="" style="line;strokeWidth=1;fillColor=none;align=left;verticalAlign=middle;spacingTop=-1;spacingLeft=3;spacingRight=3;rotatable=0;labelPosition=right;points=[];portConstraint=eastwest;strokeColor=inherit;" vertex="1" parent="YmIMG2dyGglgubDdi4Zd-66">
          <mxGeometry y="52" width="430" height="8" as="geometry" />
        </mxCell>
        <mxCell id="YmIMG2dyGglgubDdi4Zd-69" value="+ Node(const AABB &amp;amp;)" style="text;strokeColor=none;fillColor=none;align=left;verticalAlign=top;spacingLeft=4;spacingRight=4;overflow=hidden;rotatable=0;points=[[0,0.5],[1,0.5]];portConstraint=eastwest;whiteSpace=wrap;html=1;" vertex="1" parent="YmIMG2dyGglgubDdi4Zd-66">
          <mxGeometry y="60" width="430" height="26" as="geometry" />
        </mxCell>
        <mxCell id="YmIMG2dyGglgubDdi4Zd-70" value="+ insert(base_quad_tree *, uint32_t): bool" style="text;strokeColor=none;fillColor=none;align=left;verticalAlign=top;spacingLeft=4;spacingRight=4;overflow=hidden;rotatable=0;points=[[0,0.5],[1,0.5]];portConstraint=eastwest;whiteSpace=wrap;html=1;" vertex="1" parent="YmIMG2dyGglgubDdi4Zd-66">
          <mxGeometry y="86" width="430" height="26" as="geometry" />
        </mxCell>
        <mxCell id="YmIMG2dyGglgubDdi4Zd-71" value="+ subdivide(): void" style="text;strokeColor=none;fillColor=none;align=left;verticalAlign=top;spacingLeft=4;spacingRight=4;overflow=hidden;rotatable=0;points=[[0,0.5],[1,0.5]];portConstraint=eastwest;whiteSpace=wrap;html=1;" vertex="1" parent="YmIMG2dyGglgubDdi4Zd-66">
          <mxGeometry y="112" width="430" height="26" as="geometry" />
        </mxCell>
        <mxCell id="YmIMG2dyGglgubDdi4Zd-72" value="+&amp;nbsp;query(const base_quad_tree *,&amp;nbsp;&lt;span style=&quot;background-color: initial;&quot;&gt;const AABB &amp;amp;,&amp;nbsp;&lt;/span&gt;&lt;span style=&quot;background-color: initial;&quot;&gt;std::vector&amp;lt;uint32_t&amp;gt; &amp;amp;): void&lt;/span&gt;&lt;span style=&quot;background-color: initial;&quot;&gt;&lt;br&gt;&lt;/span&gt;" style="text;strokeColor=none;fillColor=none;align=left;verticalAlign=top;spacingLeft=4;spacingRight=4;overflow=hidden;rotatable=0;points=[[0,0.5],[1,0.5]];portConstraint=eastwest;whiteSpace=wrap;html=1;" vertex="1" parent="YmIMG2dyGglgubDdi4Zd-66">
          <mxGeometry y="138" width="430" height="26" as="geometry" />
        </mxCell>
        <mxCell id="YmIMG2dyGglgubDdi4Zd-73" value="" style="endArrow=none;html=1;rounded=0;exitX=0.998;exitY=0.549;exitDx=0;exitDy=0;entryX=0;entryY=0.5;entryDx=0;entryDy=0;exitPerimeter=0;dashed=1;edgeStyle=orthogonalEdgeStyle;elbow=vertical;" edge="1" parent="1" source="YmIMG2dyGglgubDdi4Zd-27" target="YmIMG2dyGglgubDdi4Zd-67">
          <mxGeometry width="50" height="50" relative="1" as="geometry">
            <mxPoint x="398.79" y="512" as="sourcePoint" />
            <mxPoint x="302.79" y="602" as="targetPoint" />
            <Array as="points">
              <mxPoint x="100" y="684" />
              <mxPoint x="100" y="875" />
            </Array>
          </mxGeometry>
        </mxCell>
        <mxCell id="YmIMG2dyGglgubDdi4Zd-74" value="" style="endArrow=open;endSize=12;dashed=1;html=1;rounded=0;exitX=0.522;exitY=-0.008;exitDx=0;exitDy=0;exitPerimeter=0;entryX=0.522;entryY=1.019;entryDx=0;entryDy=0;entryPerimeter=0;" edge="1" parent="1" source="YmIMG2dyGglgubDdi4Zd-43" target="YmIMG2dyGglgubDdi4Zd-40">
          <mxGeometry width="160" relative="1" as="geometry">
            <mxPoint y="320" as="sourcePoint" />
            <mxPoint y="260" as="targetPoint" />
            <Array as="points">
              <mxPoint y="320" />
            </Array>
          </mxGeometry>
        </mxCell>
      </root>
    </mxGraphModel>
  </diagram>
</mxfile>
